HIERARCHY
ROOT Hips
{
  OFFSET 43.0842 91.1655 101.099
  CHANNELS 6 Xposition Yposition Zposition Zrotation Xrotation Yrotation
  JOINT LeftUpLeg
  {
    OFFSET 8.64259 1.95398 -2.38835
    CHANNELS 3 Zrotation Xrotation Yrotation
    JOINT LeftLeg
    {
      OFFSET 43.7702 0 0
      CHANNELS 3 Zrotation Xrotation Yrotation
      JOINT LeftFoot
      {
        OFFSET 40.6238 0 0
        CHANNELS 3 Zrotation Xrotation Yrotation
        JOINT LeftToeBase
        {
          OFFSET 12.7242 0 0
          CHANNELS 3 Zrotation Xrotation Yrotation
          End Site
          {
            OFFSET 0 0 0
          }
        }
      }
    }
  }
  JOINT RightUpLeg
  {
    OFFSET -8.2249 1.95398 -2.59336
    CHANNELS 3 Zrotation Xrotation Yrotation
    JOINT RightLeg
    {
      OFFSET 43.5653 0 0
      CHANNELS 3 Zrotation Xrotation Yrotation
      JOINT RightFoot
      {
        OFFSET 40.6238 0 0
        CHANNELS 3 Zrotation Xrotation Yrotation
        JOINT RightToeBase
        {
          OFFSET 12.7242 0 0
          CHANNELS 3 Zrotation Xrotation Yrotation
          End Site
          {
            OFFSET 0 0 0
          }
        }
      }
    }
  }
  JOINT Spine
  {
    OFFSET 0.165834 0.87714 6.61349
    CHANNELS 3 Zrotation Xrotation Yrotation
    JOINT Spine1
    {
      OFFSET 7.38963 1.71661e-005 0
      CHANNELS 3 Zrotation Xrotation Yrotation
      JOINT Spine2
      {
        OFFSET 11.9445 1.14441e-005 0
        CHANNELS 3 Zrotation Xrotation Yrotation
        JOINT Spine3
        {
          OFFSET 14.7254 4.19617e-005 0
          CHANNELS 3 Zrotation Xrotation Yrotation
          JOINT Spine4
          {
            OFFSET 10.9679 0 0
            CHANNELS 3 Zrotation Xrotation Yrotation
            JOINT RightShoulder
            {
              OFFSET 2.46616 -1.6653 3.69651
              CHANNELS 3 Zrotation Xrotation Yrotation
              JOINT RightArm
              {
                OFFSET 13.0012 0 0
                CHANNELS 3 Zrotation Xrotation Yrotation
                JOINT RightForeArm
                {
                  OFFSET 28.7848 1.52588e-005 0
                  CHANNELS 3 Zrotation Xrotation Yrotation
                  JOINT RightHand
                  {
                    OFFSET 26.5688 1.52588e-005 0
                    CHANNELS 3 Zrotation Xrotation Yrotation
                    End Site
                    {
                      OFFSET 0 0 0
                    }
                  }
                }
              }
            }
            JOINT LeftShoulder
            {
              OFFSET 2.38034 -1.29275 -3.7523
              CHANNELS 3 Zrotation Xrotation Yrotation
              JOINT LeftArm
              {
                OFFSET 16.3182 6.10351e-005 0
                CHANNELS 3 Zrotation Xrotation Yrotation
                JOINT LeftForeArm
                {
                  OFFSET 27.0901 0 0
                  CHANNELS 3 Zrotation Xrotation Yrotation
                  JOINT LeftHand
                  {
                    OFFSET 24.5451 1.52588e-005 0
                    CHANNELS 3 Zrotation Xrotation Yrotation
                    End Site
                    {
                      OFFSET 0 0 0
                    }
                  }
                }
              }
            }
            JOINT Neck
            {
              OFFSET 5.0226 -0.0266342 0
              CHANNELS 3 Zrotation Xrotation Yrotation
              JOINT Head
              {
                OFFSET 6.69364 2.86102e-005 0
                CHANNELS 3 Zrotation Xrotation Yrotation
                End Site
                {
                  OFFSET 0 0 0
                }
              }
            }
          }
        }
      }
    }
  }
}
MOTION
Frames:	12
Frame Time:	0.0333333
98.7981 92.9391 211.382 -96.3949 -38.4191 -90.4961 -163.326 19.6726 101.78 -45.1864 28.423 -6.67826 62.9864 3.49398 22.2708 34.7037 2.05227 10.09 164.783 9.61066 75.7714 -34.8499 7.22321 0.370711 69.1623 -6.8668 4.08165 38.2044 -4.04438 -4.49206 0.205018 7.2885 -90.2423 12.2974 0.292424 -0.516663 0.626371 0.269406 -0.529036 -21.9085 0.434188 -0.404894 -1.89585 0.434187 -0.404889 98.1933 -34.8486 -89.6148 6.79137 -24.6393 -69.4571 -2.28929 -5.6541 -124.79 -17.6985 -4.02584 14.5783 -89.6917 -42.4944 77.4879 16.9419 -0.270542 -28.949 -12.862 7.76911 -103.058 13.0442 0.587394 9.94912 4.95229 23.2815 11.696 -5.57728 20.8412 3.90673 
98.53 93.0602 210.928 -96.438 -37.6095 -90.3333 -163.398 19.4728 102.059 -44.8679 27.7617 -6.26466 62.5396 2.92078 22.3594 34.3914 1.70862 9.88659 166.043 10.2566 75.5992 -37.0273 7.05919 -1.36969 70.0707 -7.49842 11.348 38.6437 -4.28924 -4.54653 0.220069 7.35831 -90.2009 12.1577 0.34246 -0.439007 0.486762 0.322814 -0.453664 -22.0484 0.458566 -0.315792 -2.03575 0.458565 -0.315793 98.3317 -34.0198 -89.4408 7.57496 -24.2764 -71.3501 -3.36416 -5.80385 -124.073 -16.7892 -3.69114 15.6271 -89.2868 -42.4412 78.1324 16.4753 -6.48444 -27.7831 -15.0784 9.11493 -100.008 12.9809 0.609935 9.39956 4.80011 23.4799 12.023 -5.39531 20.9901 3.76246 
98.0951 92.7438 210.28 -96.3815 -36.0583 -90.3158 -163.471 19.6008 102.585 -45.4694 27.2708 -6.19968 62.4299 1.99603 22.7658 34.4121 2.12217 9.25358 167.52 10.2647 74.8302 -36.9253 1.76269 -3.03645 72.1001 -9.67924 11.6848 40.3598 -5.31756 -4.46541 0.189083 7.45298 -90.2041 11.9683 0.279774 -0.437619 0.297319 0.26023 -0.449516 -22.2377 0.398342 -0.333305 -2.22503 0.398356 -0.333314 98.6311 -31.5817 -89.1358 10.3519 -24.3156 -74.1072 -4.80995 -6.69742 -121.645 -14.9903 -2.91743 13.2989 -88.0139 -43.2142 80.381 15.8352 -13.3011 -24.6938 -14.6357 10.3816 -97.1322 12.9231 0.83068 6.93199 5.79186 24.8077 15.3348 -5.08353 21.638 1.02292 
97.5955 92.6273 209.574 -95.8982 -35.156 -90.3114 -163.738 19.7403 102.81 -45.4203 28.4738 -6.19153 62.2236 1.23912 22.9232 34.4895 1.65913 10.2067 168.806 10.7513 73.7331 -35.1524 0.824197 -4.38254 71.5929 -9.55152 9.35923 40.4386 -5.41047 -4.26904 0.28036 7.36199 -90.1214 12.1509 0.499878 -0.297556 0.479986 0.486295 -0.319272 -22.0559 0.566204 -0.133557 -2.04326 0.566208 -0.133565 98.3165 -32.238 -89.6837 10.9741 -23.2222 -73.7494 -5.99529 -6.91443 -120.43 -15.8072 -3.24884 13.8047 -88.235 -43.3819 80.057 16.8029 -18.9218 -24.7258 -15.256 9.35893 -89.9972 10.2848 0.474882 4.92256 1.70986 24.0872 14.9458 -2.48788 21.6137 2.46058 
96.9941 92.706 208.698 -95.6567 -34.8139 -90.5082 -163.821 19.6997 103.057 -44.811 28.3186 -6.09071 61.8013 0.569948 22.247 34.266 1.1511 10.4806 169.402 11.1528 72.2075 -32.4319 -0.885237 -4.95052 68.5589 -6.80959 1.86739 36.0696 -2.72064 -4.63494 0.24165 7.35753 -90.0164 12.1589 0.472463 -0.0851203 0.487989 0.468279 -0.105838 -22.0478 0.476206 0.0608126 -2.03518 0.476223 0.0608114 98.371 -32.2873 -89.5684 12.3188 -21.6804 -74.6858 -5.75898 -8.20286 -120.394 -14.362 -2.66668 16.0497 -88.1596 -43.6203 80.2287 25.5373 -19.3274 -21.1856 -19.7356 9.88403 -90.5451 17.8237 1.77135 8.6396 0.0606199 23.9424 14.0738 -1.7082 21.8756 3.89684 
96.3485 92.8913 207.569 -95.1999 -34.5586 -90.4834 -163.791 19.7599 103.567 -43.6411 26.9546 -6.10344 61.378 0.0148094 20.8059 33.9787 0.984623 10.0504 169.378 12.0984 70.7291 -30.1195 -2.58248 -4.62668 65.2792 -3.42485 -2.27513 29.6423 1.56325 -5.64049 0.252534 7.37912 -90.0062 12.1165 0.499088 -0.0683695 0.445663 0.495572 -0.0902669 -22.0903 0.496554 0.0847972 -2.07763 0.496559 0.0847905 98.5764 -30.8074 -89.3346 14.8367 -20.1099 -75.5532 -4.63472 -9.43873 -119.422 -11.4988 -1.4527 16.2746 -88.5031 -44.5152 79.8663 27.5046 -20.8104 -20.2211 -17.182 1.68638 -91.1902 18.6512 2.22842 10.4564 -0.35829 23.7852 13.8064 -2.23487 21.8081 5.18736 
95.4815 93.1452 206.175 -94.61 -34.6311 -90.6932 -163.995 19.4681 103.843 -41.6008 26.1495 -6.04818 60.8761 -0.518647 19.7371 33.6361 0.336441 10.252 169.55 12.9871 69.8333 -28.7219 -1.95264 -4.82229 61.7356 -0.787273 2.94974 27.445 3.11887 -5.99732 0.309908 7.28744 -89.8149 12.2981 0.703693 0.290938 0.627378 0.715829 0.259668 -21.9087 0.583742 0.488986 -1.89601 0.583735 0.488979 98.5622 -33.1484 -89.0965 13.2272 -18.2003 -75.4921 -3.85312 -9.36514 -119.417 -11.5222 -1.47287 15.9092 -88.7202 -43.7666 79.3572 14.5508 -30.1664 -25.9901 -4.74005 3.39333 -67.9106 2.97161 0.119372 -2.05318 -2.64054 22.6555 9.45807 -1.36623 21.625 9.0824 
94.3442 93.2802 204.412 -94.6742 -34.4906 -91.3148 -164.041 18.7558 104.569 -39.6219 25.176 -6.02928 60.4356 -1.38931 18.3067 33.2652 -0.157001 10.1403 170.065 13.2766 69.6096 -29.2838 -5.21799 -5.40212 58.837 0.612877 6.94423 31.1132 0.551203 -5.38536 0.301863 7.34026 -89.6697 12.1912 0.756421 0.574946 0.520326 0.780993 0.541089 -22.0149 0.548671 0.775698 -2.00221 0.548669 0.775696 98.9233 -33.6482 -88.3398 12.9466 -17.3753 -77.0787 -4.01571 -9.30641 -118.874 -11.5615 -1.50837 15.305 -88.6831 -43.7529 79.4137 16.3525 -28.1876 -25.6202 -0.892368 -5.08108 -63.2711 3.72316 0.441055 -2.38463 -2.55647 22.4475 6.97427 -1.90075 21.6898 11.1798 
92.8006 93.1209 202.152 -94.5858 -34.5786 -91.6124 -164.769 18.6999 105.937 -38.5661 23.1794 -5.69638 60.0589 -2.77211 15.8859 33.081 -0.337518 9.98658 170.515 12.7922 70.2288 -30.8037 -10.3885 -5.52275 59.8239 -0.488644 2.59896 36.0343 -2.48178 -5.45361 0.268252 7.36758 -89.5758 12.1356 0.733892 0.765346 0.46466 0.766859 0.732297 -22.0694 0.469958 0.950513 -2.05679 0.469963 0.950513 98.8855 -33.0698 -88.4762 14.3089 -16.7515 -77.9767 -4.36892 -9.60803 -118.255 -11.1913 -1.34945 15.4712 -89.1891 -44.5146 78.7725 18.0943 -27.4067 -24.234 3.41258 -8.75458 -58.2034 0.852424 0.434789 -4.33394 -3.18112 22.4095 6.53332 -1.6371 21.7845 11.7374 
91.1565 93.2328 199.754 -94.5793 -35.4845 -92.2847 -166.32 18.0695 106.414 -36.6432 20.7599 -4.35013 58.8285 -4.57397 12.9932 32.6913 -0.791804 9.77309 170.406 12.8 70.9331 -32.5705 -7.70767 -5.42228 60.854 -1.76164 5.08784 38.8646 -3.9618 -6.34446 0.0956369 7.42041 -89.5013 12.0303 0.425589 0.948428 0.359119 0.466926 0.928773 -22.1734 0.120883 1.03248 -2.16072 0.120875 1.03247 98.6543 -31.1449 -89.1343 18.4449 -16.2912 -78.8917 -4.45363 -11.9598 -116.833 -10.9866 -1.27791 15.0889 -89.9324 -46.4783 78.0495 20.0574 -28.1932 -22.18 6.60219 -10.0889 -55.3242 0.218082 0.524438 -5.11191 -2.96219 22.8525 8.5447 -1.91438 21.9298 10.077 
89.2476 93.372 197.102 -94.4653 -36.2949 -92.2174 -166.873 18.1206 108.129 -34.3812 20.0166 -3.73905 57.4737 -6.6134 10.8193 31.8473 -2.36392 10.1737 169.775 12.1777 72.8353 -32.4449 -7.86054 -4.2537 62.3696 -2.44776 1.45784 39.5086 -4.36855 -6.29435 0.0309595 7.44768 -89.4547 11.9758 0.318763 1.05312 0.304471 0.364829 1.03806 -22.2273 -0.012468 1.10023 -2.21461 -0.0124343 1.10022 98.8373 -30.1355 -88.8815 19.2093 -16.4151 -80.0274 -4.47786 -11.8493 -116.13 -11.4638 -1.47075 15.2165 -90.5967 -47.6703 77.3025 20.9277 -28.7211 -21.173 8.72087 -11.2299 -53.014 -1.7778 0.526231 -6.09023 -2.99603 22.8334 9.78871 -1.35191 21.7979 8.99135 
87.2329 93.4475 194.251 -94.7782 -37.3952 -92.203 -167.987 18.1926 109.817 -32.7024 18.0795 -2.46073 55.8597 -8.68408 7.88653 30.952 -4.34406 10.9688 169.546 11.4553 75.3215 -33.4702 -8.66648 -3.20957 63.7318 -2.78343 -3.79195 39.3218 -4.33776 -5.96468 -0.0377506 7.47752 -89.4405 11.9166 0.188569 1.09555 0.245245 0.236607 1.08617 -22.2863 -0.149409 1.10156 -2.27359 -0.149374 1.10157 98.4262 -30.3144 -89.6987 18.8637 -16.0636 -79.8441 -4.85201 -11.0629 -116.088 -11.35 -1.42393 15.2322 -91.7215 -49.0502 75.9278 22.1035 -28.6202 -19.6083 8.70155 -13.2742 -52.1068 -1.69049 0.717882 -6.96838 -3.85036 22.5718 9.3415 -0.817135 21.7287 9.7766 
